<svg width="25" height="24" viewBox="0 0 25 24" fill="none" xmlns="http://www.w3.org/2000/svg">
<mask id="mask0_503_31740" style="mask-type:alpha" maskUnits="userSpaceOnUse" x="2" y="1" width="21" height="21">
<path fill-rule="evenodd" clip-rule="evenodd" d="M23 1H2V22H23V1ZM12.5 6C10.8431 6 9.49998 7.34315 9.49998 9V10C9.49998 11.6569 10.8431 13 12.5 13C14.1568 13 15.5 11.6569 15.5 10V9C15.5 7.34315 14.1568 6 12.5 6ZM12.4999 20C15.0496 20 17.3207 18.8072 18.7856 16.9492C17.8432 15.7252 16.3817 15 14.8242 15H10.176C8.61837 15 7.15674 15.7253 6.21436 16.9495C7.67932 18.8073 9.95032 20 12.4999 20Z" fill="#D9D9D9"/>
</mask>
<g mask="url(#mask0_503_31740)">
<path d="M12.5 21.25C17.6086 21.25 21.75 17.1086 21.75 12C21.75 6.89137 17.6086 2.75 12.5 2.75C7.39137 2.75 3.25 6.89137 3.25 12C3.25 17.1086 7.39137 21.25 12.5 21.25Z" fill="#121331" stroke="#121331" stroke-width="1.5" stroke-miterlimit="10" stroke-linecap="round"/>
</g>
</svg>
