<svg id="enHtd17oSbm1" xmlns="http://www.w3.org/2000/svg" xmlns:xlink="http://www.w3.org/1999/xlink" viewBox="0 0 256 256" shape-rendering="geometricPrecision" text-rendering="geometricPrecision" project-id="7b35a76063eb42e88a39059ce1ba7198" export-id="269d747a2b0242259cf70139f78bf43f" cached="false"><g transform="matrix(2.81 0 0 2.81 19.152312-15.548574)"><path d="M59.217,88.587l7.621-3.844c3.624-1.828,4.059-6.831.805-9.257L56.139,66.91c-1.735-1.293-4.069-1.441-5.953-.376l-3.342,1.889c-1.603.906-3.566.966-5.191.101C32.875,63.85,26.15,57.125,21.477,48.347c-.865-1.625-.805-3.588.101-5.191l1.889-3.342c1.065-1.884.917-4.218-.376-5.953L14.516,22.357c-2.426-3.255-7.429-2.82-9.257.805L1.415,30.783c-1.796,3.561-1.896,7.76-.21,11.374c9.889,21.203,25.436,36.75,46.639,46.639c3.614,1.686,7.812,1.587,11.373-.209Z" fill="#fff" stroke-miterlimit="10"/></g></svg>
