<svg xmlns="http://www.w3.org/2000/svg" xmlns:xlink="http://www.w3.org/1999/xlink" version="1.1" width="256" height="256" viewBox="0 0 256 256" xml:space="preserve">

<defs>
</defs>
<g style="stroke: none; stroke-width: 0; stroke-dasharray: none; stroke-linecap: butt; stroke-linejoin: miter; stroke-miterlimit: 10; fill: none; fill-rule: nonzero; opacity: 1;" transform="translate(1.4065934065934016 1.4065934065934016) scale(2.81 2.81)" >
	<path d="M 59.217 88.587 l 7.621 -3.844 c 3.624 -1.828 4.059 -6.831 0.805 -9.257 l -11.504 -8.576 c -1.735 -1.293 -4.069 -1.441 -5.953 -0.376 l -3.342 1.889 c -1.603 0.906 -3.566 0.966 -5.191 0.101 C 32.875 63.85 26.15 57.125 21.477 48.347 c -0.865 -1.625 -0.805 -3.588 0.101 -5.191 l 1.889 -3.342 c 1.065 -1.884 0.917 -4.218 -0.376 -5.953 l -8.575 -11.504 c -2.426 -3.255 -7.429 -2.82 -9.257 0.805 l -3.844 7.621 c -1.796 3.561 -1.896 7.76 -0.21 11.374 c 9.889 21.203 25.436 36.75 46.639 46.639 C 51.458 90.482 55.656 90.383 59.217 88.587 z" style="stroke: none; stroke-width: 1; stroke-dasharray: none; stroke-linecap: butt; stroke-linejoin: miter; stroke-miterlimit: 10; fill: rgb(255,255,255); fill-rule: nonzero; opacity: 1;" transform=" matrix(1 0 0 1 0 0) " stroke-linecap="round" />
	<path d="M 65.173 0 L 65.173 0 C 51.462 0 40.346 11.115 40.346 24.827 v 24.827 h 24.827 C 78.885 49.654 90 38.538 90 24.827 v 0 C 90 11.115 78.885 0 65.173 0 z" style="stroke: none; stroke-width: 1; stroke-dasharray: none; stroke-linecap: butt; stroke-linejoin: miter; stroke-miterlimit: 10; fill: rgb(255,255,255); fill-rule: nonzero; opacity: 1;" transform=" matrix(1 0 0 1 0 0) " stroke-linecap="round" />
	<polygon points="77.47,21.11 68.53,21.11 68.53,12.17 58.83,12.17 58.83,21.11 49.88,21.11 49.88,30.82 58.83,30.82 58.83,39.76 68.53,39.76 68.53,30.82 77.47,30.82 " style="stroke: none; stroke-width: 1; stroke-dasharray: none; stroke-linecap: butt; stroke-linejoin: miter; stroke-miterlimit: 10; fill: rgb(237,59,59); fill-rule: nonzero; opacity: 1;" transform="  matrix(1 0 0 1 0 0) "/>
</g>
</svg>