<?xml version="1.0" encoding="iso-8859-1"?>
<!-- Uploaded to: SVG Repo, www.svgrepo.com, Generator: SVG Repo Mixer Tools -->
<svg height="800px" width="800px" version="1.1" id="Layer_1" xmlns="http://www.w3.org/2000/svg" xmlns:xlink="http://www.w3.org/1999/xlink" 
	 viewBox="0 0 511.996 511.996" xml:space="preserve">
<path d="M401.074,277.329c-23.55,0-42.662,19.113-42.662,42.662s19.113,42.662,42.662,42.662s42.662-19.113,42.662-42.662
	S424.624,277.329,401.074,277.329z M401.074,345.589c-14.079,0-25.597-11.519-25.597-25.597s11.519-25.597,25.597-25.597
	s25.597,11.519,25.597,25.597S415.153,345.589,401.074,345.589z"/>
<circle style="fill:#000000;" cx="401.108" cy="319.992" r="25.597"/>
<path d="M128.035,277.329c-23.55,0-42.662,19.113-42.662,42.662s19.113,42.662,42.662,42.662s42.662-19.113,42.662-42.662
	S151.584,277.329,128.035,277.329z M128.035,345.589c-14.079,0-25.597-11.519-25.597-25.597s11.519-25.597,25.597-25.597
	s25.597,11.519,25.597,25.597S142.113,345.589,128.035,345.589z"/>
<circle style="fill:#000000;" cx="128.069" cy="319.992" r="25.597"/>
<path d="M503.464,268.797v-42.662c0-3.072-1.621-5.887-4.266-7.423c-35.324-20.307-77.902-26.621-123.465-18.345l-66.468-16.638
	c-4.352-1.109-8.703,1.365-10.154,5.546l-7.082,21.161c-29.266,6.997-56.485,5.375-73.891,2.901l34.045-22.782
	c2.133-1.365,3.584-3.669,3.84-6.229c0.171-2.56-0.683-5.119-2.474-6.911l-25.597-25.597c-2.901-2.816-7.423-3.328-10.751-1.024
	l-74.489,49.659c-78.925-2.816-116.895,33.021-132.765,55.205c-0.939,1.451-22.44,35.922,0.853,61.519
	c1.195,1.365,2.816,2.304,4.608,2.645l42.662,8.533c0.597,0.085,1.109,0.171,1.706,0.171c1.962,0,3.84-0.683,5.375-1.962
	c2.048-1.621,3.157-4.01,3.157-6.57c0-32.935,26.792-59.727,59.727-59.727s59.727,26.792,59.727,59.727
	c0,4.693,3.84,8.532,8.532,8.532h136.52c4.693,0,8.532-3.84,8.532-8.532c0-32.935,26.792-59.727,59.727-59.727
	s59.727,26.792,59.727,59.727c0,4.693,3.84,8.532,8.533,8.532h34.13c4.693,0,8.532-3.84,8.532-8.532v-42.662
	C511.996,272.637,508.157,268.797,503.464,268.797z M494.931,311.459h-17.577c-4.181-38.311-36.86-68.26-76.28-68.26
	s-72.099,29.949-76.28,68.26H204.315c-4.181-38.311-36.86-68.26-76.28-68.26c-38.823,0-71.076,29.01-76.11,66.553l-30.205-6.058
	c-11.519-15.87,2.304-38.481,2.304-38.481c1.195-1.536,2.474-3.242,3.925-4.949H42.71c4.693,0,8.532-3.84,8.532-8.532
	c0-3.84-2.56-6.911-6.058-8.021c19.539-14.932,50.854-28.413,99.489-26.109c1.877,0,3.669-0.427,5.119-1.451l70.99-47.27
	l13.311,13.225l-42.492,28.413c-2.816,1.792-4.266,5.034-3.754,8.362c0.512,3.242,2.816,5.973,5.973,6.911
	c2.048,0.597,51.024,14.932,107.083,0.085c2.73-0.768,4.949-2.816,5.887-5.546l6.058-18.174l60.581,15.188
	c1.195,0.341,2.389,0.341,3.669,0.085c28.328-5.375,69.881-7.253,109.301,13.737V243.2h-8.532c-4.693,0-8.532,3.84-8.532,8.532
	c0,4.693,3.84,8.532,8.532,8.532h8.532v17.065c0,4.693,3.84,8.532,8.533,8.532V311.459z"/>
<path style="fill:#000000;" d="M145.1,319.992c0-12.62-9.275-23.106-21.331-25.162c-12.056,2.056-21.331,12.543-21.331,25.162
	s9.275,23.106,21.331,25.162C135.825,343.098,145.1,332.611,145.1,319.992z"/>
<path style="fill:#000000;" d="M128.035,294.394c-1.459,0-2.867,0.196-4.266,0.435c12.056,2.056,21.331,12.543,21.331,25.162
	s-9.275,23.106-21.331,25.162c1.399,0.239,2.807,0.435,4.266,0.435c14.079,0,25.597-11.519,25.597-25.597
	S142.113,294.394,128.035,294.394z"/>
<path style="fill:#000000;" d="M418.139,319.992c0-12.62-9.275-23.106-21.331-25.162c-12.056,2.056-21.331,12.543-21.331,25.162
	s9.275,23.106,21.331,25.162C408.864,343.098,418.139,332.611,418.139,319.992z"/>
<path style="fill:#000000;" d="M401.074,294.394c-1.459,0-2.867,0.196-4.266,0.435c12.056,2.056,21.331,12.543,21.331,25.162
	s-9.275,23.106-21.331,25.162c1.399,0.239,2.807,0.435,4.266,0.435c14.079,0,25.597-11.519,25.597-25.597
	S415.153,294.394,401.074,294.394z"/>
<g>
	<path style="fill:#000000;" d="M326.449,302.244c-0.06,0.247-0.137,0.495-0.188,0.751
		C326.312,302.739,326.389,302.5,326.449,302.244z"/>
	<path style="fill:#000000;" d="M21.72,303.695c-0.845-1.169-1.519-2.381-2.108-3.601C20.193,301.314,20.867,302.526,21.72,303.695z
		"/>
	<path style="fill:#000000;" d="M53.631,301.203c-0.043,0.179-0.102,0.358-0.154,0.538C53.521,301.553,53.58,301.383,53.631,301.203
		z"/>
	<path style="fill:#000000;" d="M19.152,299.002c-0.384-0.913-0.717-1.843-0.981-2.782
		C18.435,297.159,18.768,298.089,19.152,299.002z"/>
	<path style="fill:#000000;" d="M202.847,303.004c-0.06-0.256-0.137-0.512-0.196-0.768
		C202.711,302.492,202.788,302.739,202.847,303.004z"/>
	<path style="fill:#000000;" d="M475.887,303.004c-0.06-0.256-0.137-0.512-0.196-0.768
		C475.75,302.492,475.827,302.739,475.887,303.004z"/>
	<path style="fill:#000000;" d="M486.399,277.329v-17.065h-8.532c-4.693,0-8.532-3.84-8.532-8.532c0-4.693,3.84-8.532,8.532-8.532
		h8.532v-12.031c-39.42-20.99-80.973-19.113-109.301-13.737c-1.28,0.256-2.474,0.256-3.669-0.085l-60.581-15.188l-6.058,18.174
		c-0.939,2.73-3.157,4.778-5.887,5.546c-56.058,14.847-105.035,0.512-107.083-0.085c-3.157-0.939-5.461-3.669-5.973-6.911
		c-0.512-3.328,0.939-6.57,3.754-8.362l42.492-28.413l-13.311-13.225l-70.99,47.27c-1.451,1.024-3.242,1.451-5.119,1.451
		c-48.635-2.304-79.949,11.178-99.489,26.109c3.498,1.109,6.058,4.181,6.058,8.021c0,4.693-3.84,8.532-8.532,8.532H27.949
		c-1.451,1.706-2.73,3.413-3.925,4.949c0,0-7.91,12.978-6.749,26.169c-0.119-1.365-0.145-2.73-0.085-4.079l38.763,6.459
		C66.703,264.3,94.946,243.2,128.035,243.2c33.319,0,61.75,21.434,72.304,51.195h128.439c10.546-29.761,38.976-51.195,72.304-51.195
		s61.75,21.434,72.304,51.195h21.553v-8.532C490.238,285.862,486.399,282.022,486.399,277.329z"/>
	<path style="fill:#000000;" d="M17.889,295.145c-0.265-1.126-0.461-2.261-0.572-3.396
		C17.437,292.893,17.624,294.019,17.889,295.145z"/>
</g>
<g>
	<path style="fill:#000000;" d="M55.935,293.755L55.935,293.755c-0.887,2.432-1.664,4.906-2.304,7.449
		C54.288,298.669,55.048,296.186,55.935,293.755z"/>
	<path style="fill:#000000;" d="M17.317,291.758c-0.009-0.128-0.043-0.247-0.051-0.375C17.283,291.502,17.309,291.63,17.317,291.758
		z"/>
	<path style="fill:#000000;" d="M19.612,300.094c-0.171-0.358-0.307-0.725-0.461-1.084
		C19.297,299.369,19.433,299.727,19.612,300.094z"/>
	<path style="fill:#000000;" d="M53.478,301.741c-0.648,2.628-1.195,5.29-1.561,8.012C52.283,307.031,52.821,304.36,53.478,301.741z
		"/>
	<path style="fill:#000000;" d="M18.17,296.22c-0.102-0.358-0.205-0.717-0.282-1.075C17.974,295.504,18.077,295.862,18.17,296.22z"
		/>
	<path style="fill:#000000;" d="M17.266,291.382c0.009,0.128,0.034,0.247,0.051,0.375c0.111,1.135,0.307,2.27,0.572,3.396
		c0.085,0.358,0.188,0.717,0.282,1.075c0.265,0.939,0.597,1.869,0.973,2.782c0.154,0.358,0.29,0.725,0.461,1.084
		c0.589,1.229,1.263,2.44,2.108,3.601l30.205,6.058c0.367-2.722,0.913-5.393,1.561-8.012c0.043-0.179,0.102-0.358,0.154-0.538
		c0.64-2.534,1.425-5.017,2.312-7.44l-38.763-6.459C17.121,288.644,17.147,290.009,17.266,291.382z"/>
	<path style="fill:#000000;" d="M477.354,311.459c-0.316-2.875-0.836-5.683-1.468-8.456
		C476.527,305.768,477.039,308.584,477.354,311.459z"/>
	<path style="fill:#000000;" d="M473.37,294.394c0.904,2.56,1.672,5.179,2.321,7.841
		C475.059,299.565,474.274,296.954,473.37,294.394L473.37,294.394z"/>
	<path style="fill:#000000;" d="M475.691,302.236c0.06,0.256,0.137,0.512,0.196,0.768c0.623,2.773,1.152,5.58,1.468,8.456h17.577
		v-17.065h-21.553C474.274,296.954,475.059,299.565,475.691,302.236z"/>
	<path style="fill:#000000;" d="M204.315,311.459c-0.316-2.875-0.836-5.683-1.468-8.456
		C203.487,305.768,203.999,308.584,204.315,311.459z"/>
	<path style="fill:#000000;" d="M328.77,294.394L328.77,294.394c-0.904,2.56-1.689,5.171-2.321,7.85
		C327.097,299.582,327.865,296.954,328.77,294.394z"/>
	<path style="fill:#000000;" d="M200.33,294.394c0.904,2.56,1.672,5.179,2.321,7.841C202.02,299.565,201.235,296.954,200.33,294.394
		L200.33,294.394z"/>
	<path style="fill:#000000;" d="M326.253,302.995c-0.623,2.773-1.152,5.589-1.468,8.464
		C325.101,308.584,325.613,305.76,326.253,302.995z"/>
	<path style="fill:#000000;" d="M202.651,302.236c0.06,0.256,0.137,0.512,0.196,0.768c0.623,2.773,1.152,5.58,1.468,8.456h120.479
		c0.316-2.875,0.836-5.691,1.468-8.464c0.06-0.256,0.128-0.495,0.188-0.751c0.631-2.679,1.416-5.29,2.321-7.85H200.33
		C201.235,296.954,202.02,299.565,202.651,302.236z"/>
</g>
</svg>