<?xml version="1.0" encoding="iso-8859-1"?>
<!-- Uploaded to: SVG Repo, www.svgrepo.com, Generator: SVG Repo Mixer Tools -->
<!DOCTYPE svg PUBLIC "-//W3C//DTD SVG 1.1//EN" "http://www.w3.org/Graphics/SVG/1.1/DTD/svg11.dtd">
<svg fill="#000000" height="800px" width="800px" version="1.1" id="Capa_1" xmlns="http://www.w3.org/2000/svg" xmlns:xlink="http://www.w3.org/1999/xlink" 
	 viewBox="0 0 471.196 471.196" xml:space="preserve">
<path d="M444.922,4.849c-4.068-3.622-9.495-5.349-14.904-4.724l-99.095,11.321c-10.096,1.155-17.725,9.702-17.725,19.876v1.226h-180
	c-62.472,0-113.306,50.834-113.306,113.313v179.337c0,8.716,7.06,15.783,15.783,15.783c8.724,0,15.784-7.067,15.784-15.783V145.861
	c0-45.077,36.668-81.746,81.738-81.746h43.867v38.788c-33.032,10.173-57.216,40.584-57.216,76.961v272.22
	c0,10.558,8.555,19.112,19.112,19.112h123.557c10.558,0,19.112-8.555,19.112-19.112v-272.22c0-36.377-24.184-66.788-57.216-76.961
	V64.115h88.783v1.225c0,10.175,7.629,18.722,17.725,19.877l99.095,11.321c5.409,0.623,10.836-1.102,14.904-4.725
	c4.054-3.63,6.382-8.816,6.382-14.265V19.115C451.304,13.667,448.975,8.48,444.922,4.849z"/>
</svg>