<svg id="eNed0nBVfWh1" xmlns="http://www.w3.org/2000/svg" xmlns:xlink="http://www.w3.org/1999/xlink" viewBox="0 0 293.334 293.334" shape-rendering="geometricPrecision" text-rendering="geometricPrecision" project-id="2378794a45bd4ef499b918b4186b8a5e" export-id="e4ee501602e24f6daf2fb9e9912222ff" cached="false"><g><g><path d="M146.667,0C94.903,0,52.946,41.957,52.946,93.721c0,22.322,7.849,42.789,20.891,58.878c4.204,5.178,11.237,13.331,14.903,18.906c21.109,32.069,48.19,78.643,56.082,116.864c1.354,6.527,2.986,6.641,4.743.212c5.629-20.609,20.228-65.639,50.377-112.757c3.595-5.619,10.884-13.483,15.409-18.379c6.554-7.098,12.009-15.224,16.154-24.084c5.651-12.086,8.882-25.466,8.882-39.629C240.387,41.962,198.43,0,146.667,0Zm0,144.358c-28.892,0-52.313-23.421-52.313-52.313c0-28.887,23.421-52.307,52.313-52.307s52.313,23.421,52.313,52.307c0,28.893-23.421,52.313-52.313,52.313Z" fill="#506350"/><circle r="21.756" transform="matrix(3.323647 0 0 3.323647 146.666984 90.195993)" fill="#fff"/></g></g><g transform="matrix(1.21569 0 0 1.21569 91.96095 35.489939)"><polygon points="45,4.38 1,39.91 9.27,39.91 9.27,85.62 37.66,85.62 32.67,70.8 43.48,56.79 35.48,46 46.5,32.71 44.44,46 55.65,56.51 45.84,71.36 56.57,85.62 80.73,85.62 80.73,39.91 89,39.91" fill="#688268" stroke-miterlimit="10"/></g></svg>
