<svg id="eQqUwBTk8Wx1" xmlns="http://www.w3.org/2000/svg" xmlns:xlink="http://www.w3.org/1999/xlink" viewBox="0 0 293.334 293.334" shape-rendering="geometricPrecision" text-rendering="geometricPrecision" project-id="2378794a45bd4ef499b918b4186b8a5e" export-id="af8b58d9919e4d1891cf773a9446c46f" cached="false"><g><g><path d="M146.667,0C94.903,0,52.946,41.957,52.946,93.721c0,22.322,7.849,42.789,20.891,58.878c4.204,5.178,11.237,13.331,14.903,18.906c21.109,32.069,48.19,78.643,56.082,116.864c1.354,6.527,2.986,6.641,4.743.212c5.629-20.609,20.228-65.639,50.377-112.757c3.595-5.619,10.884-13.483,15.409-18.379c6.554-7.098,12.009-15.224,16.154-24.084c5.651-12.086,8.882-25.466,8.882-39.629C240.387,41.962,198.43,0,146.667,0Zm0,144.358c-28.892,0-52.313-23.421-52.313-52.313c0-28.887,23.421-52.307,52.313-52.307s52.313,23.421,52.313,52.307c0,28.893-23.421,52.313-52.313,52.313Z" fill="#a87146"/><circle r="21.756" transform="matrix(3.323647 0 0 3.323647 146.666984 90.195993)" fill="#fff"/></g></g><g transform="matrix(.529441 0 0 0.529441 89.945127 33.47397)"><path d="M196.926,55.171c-.11-5.785-.215-11.25-.215-16.537c0-4.142-3.357-7.5-7.5-7.5-32.075,0-56.496-9.218-76.852-29.01-2.912-2.832-7.546-2.831-10.457,0-20.354,19.792-44.771,29.01-76.844,29.01-4.142,0-7.5,3.358-7.5,7.5c0,5.288-.104,10.755-.215,16.541-1.028,53.836-2.436,127.567,87.331,158.682.796.276,1.626.414,2.456.414s1.661-.138,2.456-.414c89.774-31.116,88.368-104.849,87.34-158.686ZM107.131,198.812C30.144,170.845,31.308,109.58,32.341,55.461c.062-3.248.122-6.396.164-9.482c30.04-1.268,54.062-10.371,74.626-28.285c20.566,17.914,44.592,27.018,74.634,28.285.042,3.085.102,6.231.164,9.477c1.032,54.121,2.195,115.388-74.798,143.356Z" fill="#ca8955"/><path d="M132.958,81.082L96.759,117.279L81.312,101.832c-2.929-2.928-7.678-2.928-10.606,0-2.929,2.93-2.929,7.678,0,10.607l20.75,20.75c1.464,1.464,3.384,2.196,5.303,2.196s3.839-.732,5.303-2.196l41.501-41.5c2.93-2.929,2.93-7.678.001-10.606-2.928-2.929-7.677-2.93-10.606-.001Z" fill="#ca8955"/></g></svg>
