<svg xmlns="http://www.w3.org/2000/svg" xmlns:xlink="http://www.w3.org/1999/xlink" version="1.1" width="256" height="256" viewBox="0 0 256 256" xml:space="preserve">

<defs>
</defs>
<g style="stroke: none; stroke-widfth: 0; stroke-dasharray: none; stroke-linecap: butt; stroke-linejoin: miter; stroke-miterlimit: 10; fill: none; fill-rule: nonzero; opacity: 1;" transform="translate(1.4065934065934016 1.4065934065934016) scale(2.81 2.81)" >
	<!-- <path d="M 45 90 C 20.187 90 0 69.813 0 45 C 0 20.187 20.187 0 45 0 c 24.813 0 45 20.187 45 45 C 90 69.813 69.813 90 45 90 z M 45 4 C 22.393 4 4 22.393 4 45 s 18.393 41 41 41 s 41 -18.393 41 -41 S 67.607 4 45 4 z" style="stroke: none; stroke-width: 1; stroke-dasharray: none; stroke-linecap: butt; stroke-linejoin: miter; stroke-miterlimit: 10; fill: rgb(255,255,255); fill-rule: nonzero; opacity: 1;" transform=" matrix(1 0 0 1 0 0) " stroke-linecap="round" /> -->
	<path d="M 24.15 63.917 h -5.671 c -1.104 0 -2 -0.896 -2 -2 s 0.896 -2 2 -2 h 5.671 c 2.025 0 3.672 -1.647 3.672 -3.672 s -1.647 -3.672 -3.672 -3.672 h -0.659 c -4.23 0 -7.672 -3.441 -7.672 -7.671 c 0 -4.23 3.441 -7.672 7.672 -7.672 h 3.583 c 1.104 0 2 0.896 2 2 s -0.896 2 -2 2 h -3.583 c -2.025 0 -3.672 1.647 -3.672 3.672 c 0 2.024 1.647 3.671 3.672 3.671 h 0.659 c 4.23 0 7.672 3.441 7.672 7.672 S 28.381 63.917 24.15 63.917 z" style="stroke: none; stroke-width: 1; stroke-dasharray: none; stroke-linecap: butt; stroke-linejoin: miter; stroke-miterlimit: 10; fill: rgb(255,255,255); fill-rule: nonzero; opacity: 1;" transform=" matrix(1 0 0 1 0 0) " stroke-linecap="round" />
	<path d="M 45 63.917 c -4.985 0 -9.041 -4.056 -9.041 -9.041 v -8.605 c 0 -4.985 4.056 -9.041 9.041 -9.041 s 9.041 4.056 9.041 9.041 v 8.605 C 54.041 59.861 49.985 63.917 45 63.917 z M 45 41.23 c -2.78 0 -5.041 2.261 -5.041 5.041 v 8.605 c 0 2.779 2.261 5.041 5.041 5.041 c 2.779 0 5.041 -2.262 5.041 -5.041 v -8.605 C 50.041 43.491 47.779 41.23 45 41.23 z" style="stroke: none; stroke-width: 1; stroke-dasharray: none; stroke-linecap: butt; stroke-linejoin: miter; stroke-miterlimit: 10; fill: rgb(255,255,255); fill-rule: nonzero; opacity: 1;" transform=" matrix(1 0 0 1 0 0) " stroke-linecap="round" />
	<path d="M 66.509 63.917 h -5.672 c -1.104 0 -2 -0.896 -2 -2 s 0.896 -2 2 -2 h 5.672 c 2.024 0 3.672 -1.647 3.672 -3.672 s -1.647 -3.672 -3.672 -3.672 H 65.85 c -4.23 0 -7.672 -3.441 -7.672 -7.671 c 0 -4.23 3.441 -7.672 7.672 -7.672 h 3.582 c 1.104 0 2 0.896 2 2 s -0.896 2 -2 2 H 65.85 c -2.024 0 -3.672 1.647 -3.672 3.672 c 0 2.024 1.647 3.671 3.672 3.671 h 0.659 c 4.23 0 7.672 3.441 7.672 7.672 S 70.739 63.917 66.509 63.917 z" style="stroke: none; stroke-width: 1; stroke-dasharray: none; stroke-linecap: butt; stroke-linejoin: miter; stroke-miterlimit: 10; fill: rgb(255,255,255); fill-rule: nonzero; opacity: 1;" transform=" matrix(1 0 0 1 0 0) " stroke-linecap="round" />
	<!-- <path d="M 57.482 35.789 c -0.512 0 -1.023 -0.195 -1.414 -0.586 C 53.126 32.26 49.195 30.64 45 30.64 c -4.195 0 -8.125 1.621 -11.068 4.563 c -0.78 0.781 -2.047 0.781 -2.828 0 c -0.781 -0.781 -0.781 -2.047 0 -2.828 C 34.802 28.676 39.737 26.64 45 26.64 c 5.264 0 10.198 2.037 13.896 5.735 c 0.781 0.781 0.781 2.047 0 2.828 C 58.506 35.593 57.994 35.789 57.482 35.789 z" style="stroke: none; stroke-width: 1; stroke-dasharray: none; stroke-linecap: butt; stroke-linejoin: miter; stroke-miterlimit: 10; fill: rgb(255,255,255); fill-rule: nonzero; opacity: 1;" transform=" matrix(1 0 0 1 0 0) " stroke-linecap="round" /> -->
	<!-- <path d="M 24.996 28.267 c -0.512 0 -1.024 -0.195 -1.414 -0.586 c -0.781 -0.781 -0.781 -2.047 0 -2.828 C 29.28 19.153 36.887 16.015 45 16.015 c 8.113 0 15.72 3.139 21.418 8.838 c 0.781 0.781 0.781 2.047 0 2.828 c -0.781 0.781 -2.047 0.781 -2.828 0 c -4.943 -4.943 -11.546 -7.666 -18.59 -7.666 c -7.044 0 -13.646 2.723 -18.59 7.666 C 26.02 28.071 25.507 28.267 24.996 28.267 z" style="stroke: none; stroke-width: 1; stroke-dasharray: none; stroke-linecap: butt; stroke-linejoin: miter; stroke-miterlimit: 10; fill: rgb(255,255,255); fill-rule: nonzero; opacity: 1;" transform=" matrix(1 0 0 1 0 0) " stroke-linecap="round" /> -->
</g>
</svg>