<?xml version="1.0" encoding="iso-8859-1"?>
<!-- Uploaded to: SVG Repo, www.svgrepo.com, Generator: SVG Repo Mixer Tools -->
<svg fill="#000000" height="800px" width="800px" version="1.1" id="Layer_1" xmlns="http://www.w3.org/2000/svg" xmlns:xlink="http://www.w3.org/1999/xlink" 
	 viewBox="0 0 457.959 457.959" xml:space="preserve">
<g>
	<g>
		<g>
			<path d="M52.41,129.161c-22.127,4.245-38.611,10.67-39.419,10.988c-7.141,2.811-11.009,10.556-8.965,17.952
				c1.158,4.193,29.289,103.617,109.012,183.339c1.783,1.783,3.58,3.532,5.382,5.264c-18.152,27.894-15.01,65.702,9.442,90.153
				c28.135,28.135,73.67,28.137,101.807,0c2.923-2.923,5.523-6.046,7.837-9.311c33.036,15.611,56.864,22.351,58.872,22.905
				c7.399,2.045,15.143-1.827,17.952-8.965c0.319-0.81,6.744-17.293,10.989-39.418C195.587,360.784,93.694,258.891,52.41,129.161z"
				/>
			<path d="M439.19,15.287c-20.38-20.382-53.37-20.384-73.755,0L344.91,35.812c-18.705-8.421-39.149-12.859-60.277-12.859
				c-39.236,0-76.124,15.279-103.868,43.022l-7.556,7.556c-14.788,14.789-31.591,26.821-49.895,35.848
				c34.298,104.968,116.816,187.486,221.784,221.784c9.048-18.325,21.123-35.171,35.975-50.024l7.428-7.427
				c27.744-27.744,43.023-64.632,43.023-103.868c0-21.128-4.438-41.572-12.859-60.277l20.524-20.524
				C459.571,68.662,459.576,35.67,439.19,15.287z"/>
		</g>
	</g>
</g>
</svg>