<?xml version="1.0" standalone="no"?>
<!DOCTYPE svg PUBLIC "-//W3C//DTD SVG 20010904//EN"
 "http://www.w3.org/TR/2001/REC-SVG-20010904/DTD/svg10.dtd">
<svg version="1.0" xmlns="http://www.w3.org/2000/svg"
 width="512.000000pt" height="512.000000pt" viewBox="0 0 512.000000 512.000000"
 preserveAspectRatio="xMidYMid meet">

<g transform="translate(0.000000,512.000000) scale(0.100000,-0.100000)"
fill="#ffffff" stroke="none">
<path d="M1431 4224 c-175 -47 -309 -193 -341 -373 -31 -171 50 -359 195 -455
187 -125 413 -106 580 46 116 106 171 293 131 445 -24 89 -57 145 -125 214
-121 121 -282 166 -440 123z m297 -533 l10 -30 -96 -37 c-120 -45 -223 -98
-251 -128 -16 -16 -29 -21 -51 -18 -40 6 -38 18 9 62 50 48 230 136 368 180 0
0 6 -13 11 -29z"/>
<path d="M2260 3650 c-25 -6 -73 -24 -107 -40 -58 -29 -105 -77 -676 -698
-337 -367 -636 -693 -664 -724 -89 -98 -95 -179 -20 -254 49 -48 95 -61 158
-44 50 14 4 -34 639 658 345 375 499 536 507 530 8 -7 15 7 23 49 28 139 47
177 110 219 48 32 129 43 184 24 71 -23 126 -90 141 -170 9 -51 -136 -758
-170 -826 -24 -46 -48 -67 -279 -238 -140 -102 -258 -192 -264 -199 -5 -6 -12
-24 -16 -39 -3 -14 -9 -33 -12 -42 -5 -14 11 -16 147 -16 85 0 203 -7 263 -15
61 -8 111 -13 113 -11 2 2 26 77 52 167 27 90 54 163 59 162 5 -1 103 -41 218
-89 299 -124 335 -123 532 6 143 94 201 182 210 315 6 104 -18 187 -107 370
-132 270 -253 436 -470 647 -142 139 -234 205 -328 237 -73 25 -180 34 -243
21z"/>
<path d="M2311 3329 c-38 -8 -76 -34 -103 -70 -11 -15 -41 -138 -83 -344 -36
-176 -69 -328 -73 -337 -4 -10 -137 -114 -296 -231 -159 -117 -298 -224 -308
-238 -60 -80 -29 -196 64 -245 39 -20 107 -17 146 6 18 11 174 124 347 250
195 144 321 243 333 263 29 47 177 771 168 820 -16 85 -108 144 -195 126z"/>
<path d="M3225 2018 c-16 -11 -68 -38 -115 -61 -78 -38 -91 -42 -160 -41 -57
0 -90 7 -139 27 -35 15 -67 24 -70 21 -5 -5 -29 -194 -25 -194 1 0 109 -11
240 -25 132 -14 246 -25 255 -25 13 0 19 28 33 156 9 86 16 158 14 159 -2 1
-16 -6 -33 -17z"/>
<path d="M349 1792 c-178 -47 -310 -193 -341 -378 -50 -299 223 -573 525 -526
374 58 526 515 259 781 -66 67 -134 105 -224 126 -81 19 -137 18 -219 -3z"/>
<path d="M1775 1754 c-145 -17 -362 -57 -419 -78 -165 -62 -273 -175 -312
-326 -39 -153 20 -273 168 -343 82 -39 166 -51 293 -42 l110 8 -101 26 c-116
31 -163 61 -196 124 -71 139 32 307 188 307 18 0 200 -40 405 -90 l373 -90
485 0 c450 0 489 -2 526 -19 42 -19 91 -68 106 -107 5 -15 19 -25 41 -28 18
-3 349 -38 736 -77 689 -69 703 -70 758 -54 101 29 184 140 184 245 0 115 -91
227 -203 249 -29 6 -164 22 -302 35 -1213 122 -2318 237 -2370 247 -55 10
-406 20 -470 13z"/>
<path d="M1419 1357 c-50 -32 -83 -105 -75 -162 8 -49 42 -97 85 -119 14 -8
197 -56 406 -107 l380 -94 470 -3 c259 -2 493 0 522 3 57 7 104 34 137 78 16
21 21 43 21 87 0 66 -18 99 -75 138 l-33 22 -483 0 -483 0 -374 90 c-205 50
-394 90 -419 90 -30 0 -56 -7 -79 -23z"/>
</g>
</svg>
