<svg id="eEYvZh9Cldb1" xmlns="http://www.w3.org/2000/svg" xmlns:xlink="http://www.w3.org/1999/xlink" viewBox="0 0 293.334 293.334" shape-rendering="geometricPrecision" text-rendering="geometricPrecision" project-id="2378794a45bd4ef499b918b4186b8a5e" export-id="1f8ba70e3ae44e3bbfe2b485672c6739" cached="false"><g><g><path d="M146.667,0C94.903,0,52.946,41.957,52.946,93.721c0,22.322,7.849,42.789,20.891,58.878c4.204,5.178,11.237,13.331,14.903,18.906c21.109,32.069,48.19,78.643,56.082,116.864c1.354,6.527,2.986,6.641,4.743.212c5.629-20.609,20.228-65.639,50.377-112.757c3.595-5.619,10.884-13.483,15.409-18.379c6.554-7.098,12.009-15.224,16.154-24.084c5.651-12.086,8.882-25.466,8.882-39.629C240.387,41.962,198.43,0,146.667,0Zm0,144.358c-28.892,0-52.313-23.421-52.313-52.313c0-28.887,23.421-52.307,52.313-52.307s52.313,23.421,52.313,52.307c0,28.893-23.421,52.313-52.313,52.313Z" fill="#3c3c3c"/><circle r="21.756" transform="matrix(3.323647 0 0 3.323647 146.666984 90.195993)" fill="#fff"/></g></g><g transform="matrix(.214397 0 0 0.214397 95.091158 38.620648)"><path d="M427.2,162.4c-1.12,0-42.744,0-42.744,0c.744-8,1.24-11.184,1.256-15.976.128-42.768-28.424-81.376-70.192-90.584-23.808-5.248-46.536-1.984-65.336,8.16C227.248,29.856,189.232,6.52,145.672,3.856c-5.608-.768-11.28-1.384-17.096-1.384C57.568,2.472,0,61.8,0,135.032c0,38.16,15.72,72.432,40.744,96.624c22.12,24.544,52.84,40.384,89.216,43.024c0,0,296.12,1.464,297.24,1.464c29.776,0,53.92-24.8,53.92-56.872s-24.144-56.872-53.92-56.872Z" fill="#4a4a4a"/><g><path d="M34.552,478.648c-1.36,0-2.736-.344-3.992-1.072-3.832-2.208-5.144-7.104-2.928-10.928l28-48.496c2.208-3.832,7.112-5.144,10.928-2.928c3.832,2.208,5.144,7.104,2.928,10.928l-28,48.496c-1.48,2.568-4.168,4-6.936,4Z" fill="#fff"/><path d="M82.552,478.648c-1.36,0-2.736-.344-3.992-1.072-3.832-2.208-5.144-7.104-2.928-10.928l28-48.496c2.208-3.832,7.112-5.144,10.928-2.928c3.832,2.208,5.144,7.104,2.928,10.928l-28,48.496c-1.48,2.568-4.168,4-6.936,4Z" fill="#fff"/><path d="M130.552,478.648c-1.36,0-2.736-.344-3.992-1.072-3.832-2.208-5.144-7.104-2.928-10.928l28-48.496c2.208-3.832,7.104-5.144,10.928-2.928c3.832,2.208,5.144,7.104,2.928,10.928l-28,48.496c-1.48,2.568-4.168,4-6.936,4Z" fill="#fff"/><path d="M178.552,478.648c-1.36,0-2.736-.344-3.992-1.072-3.832-2.208-5.144-7.104-2.928-10.928l28-48.496c2.208-3.832,7.112-5.144,10.928-2.928c3.832,2.208,5.144,7.104,2.928,10.928l-28,48.496c-1.48,2.568-4.168,4-6.936,4Z" fill="#fff"/><path d="M370.552,478.648c-1.36,0-2.736-.344-3.992-1.072-3.832-2.208-5.144-7.104-2.928-10.928l28-48.496c2.208-3.832,7.112-5.144,10.928-2.928c3.832,2.208,5.144,7.104,2.928,10.928l-28,48.496c-1.48,2.568-4.168,4-6.936,4Z" fill="#fff"/><path d="M322.552,478.648c-1.36,0-2.736-.344-3.992-1.072-3.832-2.208-5.144-7.104-2.928-10.928l28-48.496c2.216-3.832,7.104-5.144,10.928-2.928c3.832,2.208,5.144,7.104,2.928,10.928l-28,48.496c-1.48,2.568-4.168,4-6.936,4Z" fill="#fff"/><path d="M418.552,478.648c-1.36,0-2.736-.344-3.992-1.072-3.832-2.208-5.144-7.104-2.928-10.928l28-48.496c2.208-3.832,7.104-5.144,10.928-2.928c3.832,2.208,5.144,7.104,2.928,10.928l-28,48.496c-1.48,2.568-4.168,4-6.936,4Z" fill="#fff"/></g><g><polygon points="88.272,369.2 113.768,298.992 68.904,273.088 171.472,159.464 144.104,259.04 201.624,292.248" fill="#fdc567"/><polygon points="260.616,452.152 286.112,381.944 241.248,356.04 343.816,242.416 316.448,341.984 373.968,375.192" fill="#fdc567"/></g></g></svg>
