<?xml version="1.0" encoding="iso-8859-1"?>
<!-- Uploaded to: SVG Repo, www.svgrepo.com, Generator: SVG Repo Mixer Tools -->
<svg fill="#ffffff" height="800px" width="800px" version="1.1" id="Capa_1" xmlns="http://www.w3.org/2000/svg" xmlns:xlink="http://www.w3.org/1999/xlink" 
	 viewBox="0 0 489.781 489.781" xml:space="preserve">
<g>
	<g>
		<g>
			<path d="M206.908,256.54c-10.7-18.7,1.9-28.4,5.4-34.6c6.6-11.3,7.4-24.9,5.1-37.7c-2.3-12.8-11.3-46.2-12-50.5l-53.6-53.6
				c-4.7-4.7-6.2-11.3-3.9-17.1c6.2-17.1,1.9-36.9-12.4-50.5c-17.5-15.9-44.3-16.7-62.2-1.2c-10.1,8.2-15.5,19.8-16.7,31.5
				c-0.8,7.4-6.2,13.2-13.6,13.6c-11.7,1.2-23.3,6.6-31.9,16.3c-15.2,17.8-14.8,45,1.2,62.1c13.2,14.4,33.4,18.7,50.5,12.4
				c5.8-2.3,12.8-0.4,17.1,3.9l135.6,135.7C213.908,276.34,211.208,266.24,206.908,256.54z"/>
			<path d="M477.408,354.44c-13.2-14.4-33.4-18.7-50.5-12.4c-5.8,2.3-12.8,0.4-17.1-3.9l-174.9-174.9c0.4,4.3,9.7,37.7,12,50.5
				c2.3,12.8,1.6,26.8-5.1,37.7c-3.5,5.8-8.9,11.3-9.7,18.3c-0.8,5.8,11.3,36.1,12.8,47l93.3,92.9c4.7,4.7,6.2,11.3,3.9,17.1
				c-6.2,17.1-1.9,36.9,12.4,50.5c17.5,15.9,44.3,16.7,62.2,1.2c9.7-8.5,15.2-19.8,16.3-31.9c0.8-7.4,6.2-13.2,13.6-13.6
				c11.7-1.2,23.3-6.6,31.9-16.3C494.108,398.74,493.308,371.94,477.408,354.44z"/>
			<path d="M184.408,320.64c-1.6-5.1-7-8.2-12-6.6l-57.9,16.3c-5.1,1.6-8.2,7-6.6,12c1.2,4.3,6,8.1,12,6.6l57.5-16.3
				C182.808,331.14,185.608,325.64,184.408,320.64z"/>
			<path d="M223.308,359.44c-5.1-1.6-10.5,1.6-12,6.6l-16.4,57.5c-1.6,5.1,1.6,10.5,6.6,12c6.3,1.7,10.9-2.3,12-6.6l16.3-57.5
				C231.408,366.04,228.308,361.04,223.308,359.44z"/>
			<path d="M201.108,346.64c-3.9-3.9-10.1-3.9-13.6,0l-34.6,34.2c-3.9,3.9-3.9,10.1,0,13.6c5.4,4.8,12,1.9,14,0l34.2-34.2
				C204.608,356.34,204.608,350.54,201.108,346.64z"/>
			<path d="M265.608,153.14c1.2,4.3,5.9,8.3,12,6.6l57.5-15.9c5.1-1.6,8.2-7,6.6-12c-1.6-5.1-7-8.2-12-6.6l-57.5,15.9
				C267.208,142.64,264.108,148.04,265.608,153.14z"/>
			<path d="M226.808,114.24c6.2,1.8,10.9-2.3,12-6.6l16.3-57.5c1.6-5.1-1.6-10.5-6.6-12c-5.1-1.6-10.5,1.6-12,6.6l-16.3,57.5
				C218.608,107.64,221.708,112.74,226.808,114.24z"/>
			<path d="M248.908,127.14c1.9,1.9,7.9,4.9,14,0l34.2-34.2c3.9-3.9,3.9-10.1,0-13.6c-3.9-3.9-10.1-3.9-13.6,0l-34.6,34.2
				C245.008,117.34,245.008,123.64,248.908,127.14z"/>
		</g>
	</g>
</g>
</svg>