<?xml version="1.0" encoding="iso-8859-1"?>
<!-- Uploaded to: SVG Repo, www.svgrepo.com, Generator: SVG Repo Mixer Tools -->
<!DOCTYPE svg PUBLIC "-//W3C//DTD SVG 1.1//EN" "http://www.w3.org/Graphics/SVG/1.1/DTD/svg11.dtd">
<svg fill="#ffffff" height="800px" width="800px" version="1.1" id="Capa_1" xmlns="http://www.w3.org/2000/svg" xmlns:xlink="http://www.w3.org/1999/xlink" 
	 viewBox="0 0 476.582 476.582" xml:space="preserve">
<g id="XMLID_17_">
	<path id="XMLID_27_" d="M197.311,149.428c19.311,0,34.965-15.648,34.965-34.965c0-19.317-15.654-34.957-34.965-34.957
		c-19.311,0-34.965,15.64-34.965,34.957C162.346,133.78,178,149.428,197.311,149.428z"/>
	<polygon id="XMLID_26_" points="243.092,296.255 259.79,296.349 265.113,294.931 261.382,274.539 	"/>
	<polygon id="XMLID_25_" points="151.069,295.757 134.12,275.115 129.983,295.639 	"/>
	<path id="XMLID_24_" d="M457.192,329.522l-89.03-26.558c-3.881-1.16-7.979-1.41-11.985-0.795l-92.341,14.557l-37.802-0.211
		l-1.192,1.419c-4.698,5.579-11.407,8.455-18.18,8.455c-3.304,0-6.521-0.927-9.616-2.313c-3.079,1.379-6.296,2.313-9.593,2.313
		c-6.858,0-13.668-2.96-18.366-8.68l-1.232-1.505l-50.667-0.281c-0.046,0-0.101,0-0.148,0c-14.922,0-27.063,12.056-27.142,26.993
		c-0.084,14.985,12.002,27.212,26.993,27.29l28.826,0.165l12.607,5.484l44.893,19.576c2.495,1.082,5.182,1.644,7.901,1.644h64.796
		c10.934,0,19.785-8.86,19.785-19.784c0-10.926-8.851-19.786-19.785-19.786h-60.665l-33.438-14.581l108.924,0.983
		c12.943,0.023,24.017,7.839,28.902,18.981l38.916-6.141l83.123,24.797c2.587,0.772,5.198,1.13,7.761,1.13
		c11.698,0,22.489-7.605,26.004-19.389C479.728,348.925,471.554,333.807,457.192,329.522z"/>
	<g id="XMLID_19_">
		<path id="XMLID_23_" d="M187.804,317.533C187.561,317.54,188.038,317.533,187.804,317.533L187.804,317.533z"/>
		<path id="XMLID_20_" d="M266.704,243.618c-17.308-53.387-11.207-34.562-24.944-76.929c-1.77-5.471-7.925-10.232-13.388-10.232
			c-6.837,0-55.571-0.012-60.346,0c-6.689,0.016-13.099,3.648-15.203,10.342c-12.927,40.911-7.139,22.56-24.304,76.928
			c-1.527,4.816-0.516,10.083,2.704,13.996l44.674,54.406c2.954,3.601,7.591,5.502,11.907,5.404c3.103-0.07,6.546-1.212,9.133-3.339
			c0.046-0.039,0.062-0.085,0.101-0.125l0.008,0.008c2.806,2.37,6.226,3.515,9.624,3.515c4.255,0,8.495-1.809,11.447-5.322
			l45.796-54.414C267.24,253.911,268.302,248.526,266.704,243.618z M197.083,290.817l-5.68-6.912l-31.926-38.9l14.183-44.901h9.226
			l-13.583,42.999l27.866,33.953l28.645-34.038l-13.908-42.914h9.242l14.548,44.839L197.083,290.817z"/>
	</g>
	<circle id="XMLID_18_" cx="35.71" cy="333.299" r="35.71"/>
</g>
</svg>