<svg id="eR7BXulJseN1" xmlns="http://www.w3.org/2000/svg" xmlns:xlink="http://www.w3.org/1999/xlink" viewBox="0 0 293.334 293.334" shape-rendering="geometricPrecision" text-rendering="geometricPrecision" project-id="2378794a45bd4ef499b918b4186b8a5e" export-id="cd9b3b1a7c1f4a31bccfe889e85859b3" cached="false"><g><g><path d="M146.667,0C94.903,0,52.946,41.957,52.946,93.721c0,22.322,7.849,42.789,20.891,58.878c4.204,5.178,11.237,13.331,14.903,18.906c21.109,32.069,48.19,78.643,56.082,116.864c1.354,6.527,2.986,6.641,4.743.212c5.629-20.609,20.228-65.639,50.377-112.757c3.595-5.619,10.884-13.483,15.409-18.379c6.554-7.098,12.009-15.224,16.154-24.084c5.651-12.086,8.882-25.466,8.882-39.629C240.387,41.962,198.43,0,146.667,0Zm0,144.358c-28.892,0-52.313-23.421-52.313-52.313c0-28.887,23.421-52.307,52.313-52.307s52.313,23.421,52.313,52.307c0,28.893-23.421,52.313-52.313,52.313Z" fill="#a64250"/><circle r="21.756" transform="matrix(3.323647 0 0 3.323647 146.666984 90.195993)" fill="#fff"/></g></g><g transform="matrix(.199085 0 0 0.199085 85.746588 29.276099)"><path d="M216.02,611.195c5.978,3.178,12.284-3.704,8.624-9.4-19.866-30.919-38.678-82.947-8.706-149.952c49.982-111.737,80.396-169.609,80.396-169.609s16.177,67.536,60.029,127.585c42.205,57.793,65.306,130.478,28.064,191.029-3.495,5.683,2.668,12.388,8.607,9.349c46.1-23.582,97.806-70.885,103.64-165.017c2.151-28.764-1.075-69.034-17.206-119.851-20.741-64.406-46.239-94.459-60.992-107.365-4.413-3.861-11.276-.439-10.914,5.413c4.299,69.494-21.845,87.129-36.726,47.386-5.943-15.874-9.409-43.33-9.409-76.766c0-55.665-16.15-112.967-51.755-159.531-9.259-12.109-20.093-23.424-32.523-33.073-4.5-3.494-11.023.018-10.611,5.7c2.734,37.736.257,145.885-94.624,275.089-86.029,119.851-52.693,211.896-40.864,236.826c22.616,47.759,54.162,75.806,84.97,92.187Z" fill="#e86477"/></g></svg>
