<svg enable-background="new 0 0 502.335 502.335" viewBox="0 0 502.335 502.335" xmlns="http://www.w3.org/2000/svg"><g fill="#cdd6e0"><path d="m89.078 88.816c25.078-25.078 54.335-42.841 85.682-53.29l-3.135-22.988c-35.527 11.494-68.963 32.392-98.22 60.604-28.212 28.212-49.11 61.649-60.604 97.176l21.943 3.135c11.493-30.302 30.301-59.559 54.334-84.637z"/><path d="m89.078 412.735c-25.078-25.078-42.841-54.335-53.29-85.682l-22.988 3.135c11.494 35.527 32.392 68.963 60.604 98.22 28.212 28.212 61.649 49.11 97.175 60.604l3.135-22.988c-30.302-10.449-59.559-29.257-84.636-53.289z"/><path d="m412.996 88.816c25.078 25.078 42.841 54.335 53.29 85.682l21.943-3.135c-11.494-35.527-32.392-68.963-60.604-97.176-28.212-28.212-61.649-49.11-98.22-60.604l-3.135 22.988c32.391 9.405 61.648 28.213 86.726 52.245z"/><path d="m489.273 330.188-22.988-3.135c-11.494 31.347-29.257 60.604-53.29 85.682-25.078 25.078-54.335 42.841-85.682 53.29l3.135 21.943c35.527-11.494 68.963-32.392 97.175-60.604 29.259-28.213 49.112-61.65 61.65-97.176z"/></g><path d="m148.637 353.176c-11.494-11.494-20.898-25.078-27.167-38.661l-85.682 12.539c11.494 31.347 29.257 60.604 53.29 85.682 25.078 25.078 54.335 42.841 85.682 53.29l12.539-85.682c-13.585-6.271-27.168-15.675-38.662-27.168z" fill="#f2f2f2"/><path d="m353.437 353.176c-11.494 11.494-25.078 20.898-38.661 27.167l12.539 85.682c31.347-11.494 60.604-29.257 85.682-53.29 25.078-25.078 42.841-54.335 53.29-85.682l-85.682-12.539c-6.27 13.584-15.674 27.168-27.168 38.662z" fill="#f2f2f2"/><path d="m148.637 148.376c11.494-11.494 25.078-20.898 38.661-27.167l-12.539-85.682c-31.347 10.449-60.604 29.257-85.682 53.29-25.077 25.077-42.84 54.334-53.289 85.681l85.682 12.539c6.269-13.584 15.673-27.168 27.167-38.661z" fill="#f2f2f2"/><path d="m353.437 148.376c11.494 11.494 20.898 25.078 27.167 38.661l85.682-12.539c-11.494-31.347-29.257-60.604-53.29-85.682-25.078-25.078-54.335-42.841-85.682-54.335l-12.539 85.682c13.584 7.315 27.168 16.719 38.662 28.213z" fill="#f2f2f2"/><path d="m466.286 327.053 22.988 3.135c16.718-51.2 16.718-107.624 0-158.825l-21.943 3.135c16.718 49.11 16.718 103.445-1.045 152.555z" fill="#f1543f"/><path d="m466.286 174.498-85.682 12.539c19.853 39.706 19.853 86.727 0 126.433l85.682 12.539c17.763-48.066 17.763-102.401 0-151.511z" fill="#ff7058"/><path d="m35.788 174.498-21.943-3.135c-17.763 51.2-17.763 107.624 0 158.824l22.988-3.135c-18.809-49.109-18.809-103.444-1.045-152.554z" fill="#f1543f"/><path d="m121.469 187.037-85.682-12.539c-17.763 49.11-17.763 103.445 0 152.555l85.682-12.539c-19.853-40.751-19.853-86.726 0-127.477z" fill="#ff7058"/><path d="m174.759 466.024-3.135 22.988c51.2 17.763 107.624 17.763 158.824 0l-3.135-21.943c-49.109 16.719-103.444 16.719-152.554-1.045z" fill="#f1543f"/><path d="m187.298 380.343-12.539 85.682c49.11 17.763 103.445 17.763 152.555 0l-12.539-85.682c-40.75 19.853-86.726 19.853-127.477 0z" fill="#ff7058"/><path d="m327.314 35.527 3.135-22.988c-51.2-16.718-107.624-16.718-158.825 0l3.135 22.988c49.11-17.764 103.445-17.764 152.555 0z" fill="#f1543f"/><path d="m314.776 121.208 12.539-85.682c-49.11-17.763-103.445-17.763-152.555 0l12.539 85.682c40.75-19.853 86.726-19.853 127.477 0z" fill="#ff7058"/><path d="m314.776 121.208-3.135 22.988c9.404 5.224 18.808 12.539 26.122 19.853 8.359 8.359 14.629 16.718 19.853 26.122l22.988-3.135c-7.314-13.584-15.673-27.167-27.167-38.661-11.494-11.493-25.078-20.897-38.661-27.167z" fill="#cdd6e0"/><path d="m164.31 164.049c8.359-8.359 16.718-14.629 26.122-19.853l-3.135-22.988c-13.584 7.314-27.167 15.673-38.661 27.167s-20.898 25.078-27.167 38.661l22.988 3.135c5.225-8.359 12.539-17.763 19.853-26.122z" fill="#cdd6e0"/><path d="m164.31 337.502c-8.359-8.359-14.629-16.718-19.853-26.122l-22.988 3.135c7.314 13.584 15.673 27.167 27.167 38.661s25.078 20.898 38.661 27.167l3.135-22.988c-8.359-5.224-17.763-12.539-26.122-19.853z" fill="#cdd6e0"/><path d="m337.763 337.502c-8.359 8.359-16.718 14.629-26.122 19.853l3.135 22.988c13.584-7.314 27.167-15.673 38.661-27.167s20.898-25.078 27.167-38.661l-22.988-3.135c-5.224 8.359-12.538 17.763-19.853 26.122z" fill="#cdd6e0"/><path d="m357.616 310.335 22.988 3.135c19.853-39.706 19.853-86.727 0-126.433l-22.988 3.135c20.898 37.616 20.898 83.591 0 120.163z" fill="#f1543f"/><path d="m144.457 191.216-22.988-3.135c-19.853 39.706-19.853 86.727 0 126.433l22.988-3.135c-20.898-37.616-20.898-83.591 0-120.163z" fill="#f1543f"/><path d="m191.478 357.355-3.135 22.988c39.706 19.853 86.727 19.853 126.433 0l-3.135-22.988c-37.616 20.898-83.592 20.898-120.163 0z" fill="#f1543f"/><path d="m310.596 144.196 3.135-22.988c-39.706-19.853-86.727-19.853-126.433 0l3.135 22.988c37.616-20.898 83.592-20.898 120.163 0z" fill="#f1543f"/></svg>