<svg width="73" height="138" viewBox="0 0 73 138" fill="none" xmlns="http://www.w3.org/2000/svg">
<g clip-path="url(#clip0_1_9)">
<path d="M6.05368 94.8307C6.45698 95.6323 6.81887 96.3942 7.12197 97.2413C8.18613 98.9266 9.74283 99.7699 11.3951 100.846C13.1114 102.134 13.1114 102.134 13.5317 102.969C13.546 103.677 13.5472 104.385 13.5317 105.092C12.4321 105.717 12.0243 105.8 10.6829 105.8C12.8316 109.439 14.971 112.904 17.8049 116.062C18.0766 116.37 18.3484 116.678 18.6284 116.996C19.4117 117.874 20.2066 118.74 21.0098 119.6C21.2053 119.813 21.4009 120.027 21.6023 120.247C23.5575 122.295 25.8634 123.93 28.1317 125.615C28.4131 125.825 28.6945 126.035 28.9844 126.251C29.1731 126.392 29.3617 126.532 29.5561 126.677C29.3326 127.713 28.9913 128.574 28.4878 129.508C29.0743 129.76 29.6708 129.99 30.2683 130.215C30.5029 130.309 30.7374 130.402 30.9791 130.499C35.3232 132.035 39.6087 131.581 43.8 129.862C44.1526 129.745 44.5051 129.628 44.8683 129.508C44.6847 129.245 44.5011 128.982 44.3119 128.712C43.8 127.738 43.8 127.738 43.8167 127.071C44.3253 125.95 45.2448 125.401 46.2259 124.709C53.2106 119.572 58.2624 113.17 62.6732 105.8C62.2692 105.749 61.8653 105.698 61.4491 105.645C60.1805 105.446 60.1805 105.446 59.8244 105.092C59.6782 103.814 59.6868 103.172 60.4198 102.092C61.294 101.151 62.1215 100.585 63.2296 99.9394C65.1059 98.844 65.993 98.0643 66.657 95.9807C66.8003 95.4115 66.8003 95.4115 66.9464 94.8307C68.0147 95.5384 68.0147 95.5384 68.3708 96.6C68.3952 97.2704 68.401 97.9417 68.393 98.6125C68.3898 98.9642 68.3866 99.3158 68.3833 99.6782C68.3771 100.081 68.3771 100.081 68.3708 100.492C70.5826 99.3671 70.5826 99.3671 71.9317 97.374C72.0492 97.0018 72.1668 96.6296 72.2878 96.2461C73.1131 97.4039 73.0587 98.4045 72.8331 99.7777C72.2281 102.063 70.6076 103.163 68.7269 104.385C68.8995 106.029 68.8995 106.029 69.439 107.569C69.0161 108.455 68.5734 109.287 68.0814 110.135C67.9356 110.388 67.7898 110.641 67.6396 110.902C62.7786 119.198 56.2738 126.077 48.4293 131.631C48.7157 132.014 48.7157 132.014 49.0079 132.405C49.4976 133.4 49.4976 133.4 49.3056 134.337C48.1078 136.253 45.4814 136.928 43.3994 137.58C37.6301 138.87 30.5579 138.645 25.3275 135.7C24.5917 135.232 24.2781 134.947 23.9003 134.163C23.8409 133.077 24.3163 132.504 24.9268 131.631C24.6597 131.438 24.3925 131.245 24.1173 131.046C21.649 129.239 19.319 127.362 17.0927 125.262C16.9238 125.103 16.7549 124.945 16.5808 124.782C12.7901 121.21 9.76937 117.29 6.96618 112.921C6.78509 112.639 6.604 112.357 6.41742 112.067C5.42833 110.494 4.5492 108.964 3.91709 107.215C4.20642 106.441 4.20642 106.441 4.62929 105.8C4.62929 105.333 4.62929 104.866 4.62929 104.385C4.04396 103.8 4.04396 103.8 3.27166 103.323C1.89387 102.405 0.897665 101.629 0.504953 99.9712C0.47787 99.6688 0.450787 99.3664 0.422884 99.0548C0.391211 98.7515 0.359537 98.4481 0.326904 98.1356C0.356115 97.3077 0.356115 97.3077 1.06831 96.2461C1.14221 96.4341 1.21612 96.622 1.29226 96.8156C2.17348 98.8234 2.98727 99.5759 4.98538 100.492C4.97299 100.202 4.9606 99.9121 4.94783 99.6132C4.93819 99.2319 4.92855 98.8506 4.91862 98.4577C4.90622 98.08 4.89383 97.7023 4.88106 97.3132C4.99577 96.1399 5.26011 95.6835 6.05368 94.8307Z" fill="white"/>
<path d="M30.9805 39.9846C31.9719 40.4772 32.0413 41.1013 32.4049 42.1077C32.5793 41.7601 32.7538 41.4125 32.9335 41.0544C33.8293 39.9846 33.8293 39.9846 35.2147 39.7773C35.7326 39.7913 36.2503 39.8165 36.7671 39.8519C37.0324 39.8615 37.2977 39.8711 37.5711 39.8809C38.2235 39.9059 38.8753 39.944 39.5269 39.9846C39.9969 40.802 40.467 41.6194 40.9512 42.4615C41.3038 41.6442 41.6563 40.8268 42.0195 39.9846C42.3721 40.1598 42.3721 40.1598 42.7317 40.3385C42.9377 41.2007 42.9377 41.2007 43.1004 42.3358C43.1607 42.7433 43.2211 43.1509 43.2833 43.5708C43.3738 44.2149 43.3738 44.2149 43.4662 44.8721C43.5885 45.7149 43.7114 46.5576 43.8348 47.4002C43.9147 47.9638 43.9147 47.9638 43.9962 48.5389C44.128 49.3625 44.2911 50.1503 44.5122 50.9538C44.895 50.9644 44.895 50.9644 45.2854 50.9751C46.4374 51.0087 47.5891 51.0476 48.7409 51.0865C49.3434 51.103 49.3434 51.103 49.958 51.1197C50.5329 51.1402 50.5329 51.1402 51.1195 51.1612C51.4738 51.1723 51.8281 51.1834 52.1932 51.1949C53.0586 51.3077 53.0586 51.3077 53.7708 52.0154C53.7708 52.3657 53.7708 52.716 53.7708 53.0769C57.5312 53.0769 61.2915 53.0769 65.1659 53.0769C67.2483 63.811 67.6928 75.2797 65.1659 85.9846C65.0896 86.3177 65.0133 86.6508 64.9346 86.994C62.3275 98.0917 57.1044 108.212 49.1415 116.415C48.8385 116.743 48.5356 117.07 48.2234 117.408C45.812 119.94 43.1521 121.914 40.1952 123.778C39.7491 124.06 39.3089 124.351 38.8752 124.651C37.817 125.341 37.2398 125.647 35.9701 125.45C34.7008 124.808 33.5166 124.108 32.3381 123.315C32.1057 123.16 31.8733 123.005 31.6338 122.845C29.0893 121.108 26.8897 119.075 24.7099 116.906C24.2404 116.44 23.7668 115.978 23.2771 115.534C11.8314 104.994 7.18258 87.5713 6.47655 72.6269C6.23966 66.0201 6.89884 59.5516 8.19027 53.0769C11.9507 53.0769 15.7111 53.0769 19.5854 53.0769C19.7029 52.6098 19.8204 52.1428 19.9415 51.6615C20.552 51.0549 21.3675 51.2261 22.2019 51.1957C22.5863 51.1809 22.9708 51.1661 23.3668 51.1508C23.7715 51.1369 24.1761 51.123 24.593 51.1087C25.202 51.0857 25.202 51.0857 25.8234 51.0623C26.8302 51.0247 27.837 50.9886 28.8439 50.9538C29.6627 47.313 30.3489 43.6613 30.9805 39.9846ZM32.761 43.5231C33.1171 44.2308 33.1171 44.2308 33.1171 44.2308L32.761 43.5231ZM37.0342 48.4769C37.6217 48.4769 38.2093 48.4769 38.8147 48.4769C38.9322 48.0098 39.0497 47.5428 39.1708 47.0615C38.3798 47.0615 37.6186 48.0004 37.0342 48.4769ZM34.5415 47.4154C34.659 47.7657 34.7765 48.116 34.8976 48.4769C35.3676 48.3602 35.8377 48.2434 36.322 48.1231C35.4406 47.7728 35.4406 47.7728 34.5415 47.4154ZM35.2537 49.1846C35.3712 49.4182 35.4887 49.6517 35.6098 49.8923C36.3149 49.8923 37.0199 49.8923 37.7464 49.8923C37.8639 49.6588 37.9814 49.4252 38.1025 49.1846C37.1624 49.1846 36.2223 49.1846 35.2537 49.1846ZM36.322 50.6C36.322 50.8335 36.322 51.0671 36.322 51.3077C36.557 51.3077 36.792 51.3077 37.0342 51.3077C37.0342 51.0742 37.0342 50.8406 37.0342 50.6C36.7992 50.6 36.5641 50.6 36.322 50.6ZM21.0098 52.3692C21.0098 52.7195 21.0098 53.0698 21.0098 53.4308C22.4199 53.4308 23.8301 53.4308 25.283 53.4308C25.1654 53.0805 25.0479 52.7302 24.9269 52.3692C23.6342 52.3692 22.3416 52.3692 21.0098 52.3692ZM32.0488 52.3692C32.0488 52.7195 32.0488 53.0698 32.0488 53.4308C33.3414 53.4308 34.6341 53.4308 35.9659 53.4308C35.8484 53.0805 35.7309 52.7302 35.6098 52.3692C34.4347 52.3692 33.2595 52.3692 32.0488 52.3692ZM42.7317 52.3692C42.7317 52.7195 42.7317 53.0698 42.7317 53.4308C44.0244 53.4308 45.317 53.4308 46.6488 53.4308C46.5313 53.0805 46.4138 52.7302 46.2927 52.3692C45.1176 52.3692 43.9425 52.3692 42.7317 52.3692ZM9.61466 54.4923C8.69477 59.6721 8.10579 64.2287 8.10125 69.4202C8.10101 69.6687 8.10077 69.9172 8.10052 70.1732C8.12615 86.973 13.8154 102.906 25.283 115.354C25.5005 115.595 25.7181 115.836 25.9423 116.085C28.5015 118.785 32.4409 122.187 35.9659 123.492C40.8648 123.247 46.1296 117.42 49.3641 114.049C61.5959 100.549 66.0808 82.1941 65.1659 64.4C64.8862 61.0667 64.4014 57.7711 63.7415 54.4923C45.8796 54.4923 28.0178 54.4923 9.61466 54.4923Z" fill="white"/>
<path d="M9.61462 79.2615C27.4765 79.2615 45.3383 79.2615 63.7415 79.2615C63.7415 81.1366 63.6772 82.2848 63.2073 84.0163C63.0586 84.574 63.0586 84.574 62.9068 85.1428C62.8297 85.4206 62.7526 85.6984 62.6732 85.9846C62.44 86.0152 62.2068 86.0457 61.9665 86.0772C59.0072 86.5299 56.4576 87.537 53.7596 88.8002C51.0901 90.024 48.6754 90.1455 45.9366 89.1692C45.1056 88.7665 44.2849 88.3564 43.4661 87.9308C39.915 86.0925 36.7566 85.4954 32.8597 86.6177C31.1869 87.1928 29.6292 87.8836 28.0649 88.7048C25.7506 89.8801 23.7487 90.1125 21.2101 89.4775C19.6758 88.9592 18.2315 88.2607 16.7769 87.5548C14.7377 86.6192 12.8955 86.2121 10.6829 85.9846C9.97072 83.8615 9.97072 83.8615 9.61462 79.2615Z" fill="white"/>
<path d="M16.3805 0C16.7366 1.06154 16.7366 1.06154 16.5808 1.92404C16.3977 3.07625 16.3066 4.16522 16.2692 5.32981C16.2559 5.68422 16.2426 6.03863 16.2288 6.40379C16.4277 7.75108 16.8346 8.24053 17.8048 9.2C18.9012 10.005 20.0621 10.7036 21.2232 11.4115C22.5956 12.2782 23.6125 12.9456 24.2146 14.5077C24.3602 15.8611 24.336 17.2155 24.3085 18.5749C24.3214 19.3882 24.3579 20.0909 24.5707 20.8769C25.8138 22.0035 26.9953 22.4574 28.6213 22.801C31.6521 23.5651 33.8295 25.0259 35.6097 27.6C35.8538 28.1871 36.0936 28.7759 36.3219 29.3692C36.6745 29.486 37.027 29.6028 37.3902 29.7231C37.3976 29.4312 37.4049 29.1392 37.4125 28.8385C37.9688 26.7745 39.2748 25.4004 41.0583 24.2329C43.184 23.1145 45.3924 22.5073 47.717 21.9385C48.0696 21.8217 48.4221 21.7049 48.7853 21.5846C48.9144 20.6635 49.04 19.7421 49.1637 18.8202C49.2006 18.5591 49.2376 18.2979 49.2757 18.0289C49.4337 16.8318 49.5307 16.022 49.1414 14.8615C50.2598 12.2917 52.8998 10.7835 55.1895 9.3396C56.192 8.67328 56.192 8.67328 56.9756 7.78462C57.1192 6.57394 57.1192 6.57394 57.0646 5.21923C57.0563 4.53777 57.0563 4.53777 57.0479 3.84255C56.9786 2.53358 56.8284 1.29219 56.6195 0C58.562 1.77782 59.2493 3.27242 59.4738 5.8509C59.4614 7.79076 59.0537 9.51373 57.7559 10.9983C56.7363 11.908 55.7091 12.6463 54.5274 13.3356C53.6031 13.9029 53.4423 14.2105 53.0585 15.2154C52.9713 16.0608 52.9153 16.9096 52.8805 17.7587C52.704 20.9043 52.704 20.9043 52.4576 22.3587C52.4195 22.5899 52.3814 22.8212 52.3421 23.0594C51.2213 25.124 48.3339 25.7249 46.2335 26.4051C44.5783 26.9783 43.4882 27.6038 42.3756 29.0154C42.3756 29.4825 42.3756 29.9495 42.3756 30.4308C42.5812 30.117 42.7869 29.8031 42.9987 29.4798C44.791 27.3213 47.9847 26.6717 50.5658 25.8308C50.9219 26.1846 50.9219 26.1846 51.0109 27.401C50.9811 29.7527 50.3012 32.482 48.7853 34.3231C46.9362 35.6093 44.9182 35.6263 42.7317 35.7385C42.8492 35.8552 42.9667 35.972 43.0878 36.0923C43.1545 36.9548 43.1545 36.9548 43.0878 37.8615C42.3756 38.5692 42.3756 38.5692 41.6829 38.6383C40.9642 38.6153 40.2455 38.5923 39.5268 38.5692C39.5268 37.8615 39.5268 37.8615 40.0609 37.2865C40.2372 37.126 40.4135 36.9654 40.5951 36.8C40.3233 37.0189 40.0516 37.2379 39.7716 37.4635C37.9742 38.8757 37.9742 38.8757 36.7893 39.1221C35.0053 38.8211 34.0147 37.6857 32.7609 36.4462C32.9372 36.6651 33.1135 36.884 33.2951 37.1096C33.8292 37.8615 33.8292 37.8615 33.8292 38.5692C31.6732 38.6383 31.6732 38.6383 30.9805 38.5692C30.2683 37.8615 30.2683 37.8615 30.2237 36.9769C30.2384 36.685 30.2531 36.3931 30.2683 36.0923C30.2683 35.8588 30.2683 35.6252 30.2683 35.3846C29.9137 35.4031 29.9137 35.4031 29.5519 35.4219C26.3388 35.5198 26.3388 35.5198 24.9268 34.3231C23.2136 32.4748 22.7191 30.8572 22.5677 28.374C22.541 27.9631 22.5144 27.5521 22.487 27.1287C22.4695 26.8171 22.4521 26.5056 22.4341 26.1846C23.0726 25.9676 23.0726 25.9676 23.8585 25.8308C24.4772 26.1672 25.0946 26.5077 25.6905 26.8826C26.414 27.3222 26.414 27.3222 27.5975 27.5115C29.3652 28.1388 30.2181 29.332 31.3366 30.7846C31.2369 29.6288 31.0013 29.0429 30.2933 28.1073C28.5939 26.7688 26.652 26.2109 24.6166 25.5218C22.2507 24.6598 22.2507 24.6598 21.338 23.3677C21.0498 22.4234 20.8509 21.6146 20.7872 20.6337C20.7624 20.3317 20.7376 20.0297 20.7121 19.7186C20.6718 19.0538 20.6408 18.3884 20.6175 17.7227C20.5274 15.6537 20.5274 15.6537 19.5631 13.8663C18.9856 13.439 18.4057 13.0148 17.816 12.6044C16.2176 11.4695 14.8124 10.4433 14.2439 8.49231C13.8117 5.36743 14.2932 2.99336 16.0244 0.353846C16.1419 0.237077 16.2594 0.120308 16.3805 0Z" fill="white"/>
<path d="M44.5635 94.5364C47.2374 95.7275 50.8547 95.5839 53.6372 94.8391C54.7741 94.4048 55.8743 93.9319 56.9756 93.4154C57.5911 93.1419 58.2068 92.8691 58.8229 92.5971C59.0703 92.4817 59.3177 92.3663 59.5726 92.2474C60.1805 92 60.1805 92 60.8927 92C60.6819 93.9509 59.9866 95.5424 59.179 97.3077C58.9955 97.7223 58.9955 97.7223 58.8083 98.1453C56.8002 102.593 56.8002 102.593 54.2826 103.611C53.9443 103.752 53.606 103.892 53.2575 104.038C50.3093 105.16 47.8812 104.991 45.0032 103.729C44.2184 103.353 43.4405 102.966 42.665 102.571C39.3227 100.894 35.9287 100.67 32.3604 101.797C30.6578 102.42 29.0424 103.168 27.4404 104.013C25.6748 104.908 24.0191 104.977 22.0781 104.738C20.5992 104.255 19.2052 103.643 17.8049 102.969C17.5671 102.874 17.3293 102.779 17.0844 102.681C16.1939 102.15 15.9855 101.693 15.5654 100.756C15.4286 100.454 15.2918 100.151 15.1509 99.8392C15.0132 99.522 14.8754 99.2047 14.7336 98.8779C14.5931 98.5702 14.4526 98.2626 14.3079 97.9456C13.4354 95.9816 12.8643 94.1095 12.4634 92C14.6302 92.6706 16.6529 93.4769 18.7021 94.4465C21.916 95.8446 25.9756 95.6101 29.2 94.3885C30.8933 93.6545 32.5395 92.8326 34.1854 92C37.9611 90.8369 41.2913 92.8601 44.5635 94.5364Z" fill="white"/>
<path d="M40.3322 107.474C41.3764 107.955 42.3961 108.474 43.4161 109.004C45.3459 109.976 47.3432 110.42 49.4976 110.621C49.9052 110.661 49.9052 110.661 50.321 110.701C50.5193 110.719 50.7176 110.736 50.9219 110.754C48.5918 114.902 44.764 117.921 40.9512 120.662C40.5799 120.932 40.2085 121.202 39.8259 121.48C37.9001 122.798 37.9001 122.798 37.0341 123.138C32.0976 121.858 27.4575 116.995 24.0811 113.363C23.9135 113.183 23.746 113.003 23.5734 112.818C22.4341 111.554 22.4341 111.554 22.4341 110.754C22.7527 110.719 23.0713 110.685 23.3995 110.649C26.4898 110.269 29.1229 109.679 31.8401 108.146C34.7246 106.54 37.2331 106.135 40.3322 107.474Z" fill="white"/>
<path d="M35.6098 55.9077C36.3148 55.9077 37.0199 55.9077 37.7464 55.9077C37.7464 56.258 37.7464 56.6083 37.7464 56.9692C38.2164 56.9692 38.6865 56.9692 39.1707 56.9692C39.1707 56.7357 39.1707 56.5021 39.1707 56.2615C40.2168 56.3942 40.2168 56.3942 41.3073 56.6154C41.4836 56.9657 41.4836 56.9657 41.6634 57.3231C41.5459 57.5566 41.4284 57.7901 41.3073 58.0308C41.7039 57.9103 41.7039 57.9103 42.1085 57.7875C43.0878 57.6769 43.0878 57.6769 43.9113 58.1856C44.1096 58.368 44.3079 58.5505 44.5122 58.7385C44.3947 59.3223 44.2772 59.9061 44.1561 60.5077C44.3397 60.4347 44.5233 60.3617 44.7125 60.2865C45.9424 60.0985 46.897 60.5042 48.0732 60.8615C48.082 62.6188 48.0884 64.3761 48.0927 66.1334C48.0945 66.7316 48.097 67.3299 48.1 67.9282C48.1043 68.7863 48.1064 69.6443 48.108 70.5025C48.1098 70.7715 48.1116 71.0406 48.1135 71.3178C48.1136 71.9607 48.0953 72.6036 48.0732 73.2461C47.4059 73.9093 46.2772 73.6936 45.3844 73.7244C45.1429 73.7327 44.9013 73.7411 44.6525 73.7497C43.8565 73.7759 43.0605 73.7988 42.2643 73.8211C41.9946 73.8292 41.7249 73.8373 41.4471 73.8456C36.1567 73.9989 30.9284 73.849 25.639 73.6C25.639 69.3963 25.639 65.1926 25.639 60.8615C28.4878 60.1538 28.4878 60.1538 29.2 60.5077C29.0825 59.9238 28.965 59.34 28.8439 58.7385C29.6674 58.1856 29.6674 58.1856 30.6244 57.6769C30.9769 57.7937 31.3295 57.9105 31.6927 58.0308C31.8102 57.5637 31.9277 57.0966 32.0488 56.6154C32.7539 56.4986 33.4589 56.3818 34.1854 56.2615C34.1854 56.4951 34.1854 56.7286 34.1854 56.9692C34.6554 56.9692 35.1255 56.9692 35.6098 56.9692C35.6098 56.6189 35.6098 56.2686 35.6098 55.9077ZM33.1171 59.8C33.1171 59.9168 33.1171 60.0335 33.1171 60.1538C35.4673 60.1538 37.8176 60.1538 40.239 60.1538C39.155 59.0767 38.1906 59.037 36.7226 59.026C35.3676 59.0358 34.3344 59.1548 33.1171 59.8ZM31.804 61.0385C30.6804 61.1522 29.6212 61.2154 28.4878 61.2154C28.4878 64.2514 28.4878 67.2874 28.4878 70.4154C32.9111 70.5817 32.9111 70.5817 36.322 69.7077C36.322 66.7885 36.322 63.8692 36.322 60.8615C34.7593 60.8615 33.3385 60.8818 31.804 61.0385ZM37.0342 61.2154C37.0031 61.8455 36.9961 62.4768 36.9994 63.1076C37.0005 63.4896 37.0017 63.8716 37.0029 64.2652C37.0058 64.6673 37.0088 65.0694 37.0119 65.4836C37.0135 65.8871 37.0151 66.2905 37.0168 66.7062C37.021 67.7067 37.0269 68.7072 37.0342 69.7077C39.844 70.4649 41.7668 70.4154 44.8683 70.4154C44.8683 67.3794 44.8683 64.3434 44.8683 61.2154C43.8107 61.2154 42.7531 61.2154 41.6634 61.2154C41.0689 61.1028 40.4752 60.9854 39.8829 60.8615C38.348 60.6737 38.348 60.6737 37.0342 61.2154ZM27.4195 61.5692C26.9662 61.9403 26.9662 61.9403 27.023 62.7753C27.0249 63.144 27.0267 63.5128 27.0287 63.8927C27.0298 64.2907 27.0309 64.6887 27.0321 65.0987C27.0351 65.5177 27.0381 65.9366 27.0412 66.3683C27.0428 66.7886 27.0444 67.2089 27.046 67.642C27.0503 68.6844 27.0561 69.7268 27.0634 70.7692C27.2985 70.6525 27.5335 70.5357 27.7756 70.4154C27.7756 67.4961 27.7756 64.5769 27.7756 61.5692C27.6581 61.5692 27.5406 61.5692 27.4195 61.5692ZM45.5805 61.5692C45.5496 63.0288 45.5305 64.4883 45.5137 65.9481C45.5048 66.3641 45.4958 66.7801 45.4866 67.2086C45.4832 67.6055 45.4797 68.0023 45.4762 68.4112C45.4706 68.7781 45.465 69.145 45.4592 69.523C45.4992 69.8175 45.5393 70.112 45.5805 70.4154C46.1093 70.7657 46.1093 70.7657 46.6488 71.1231C46.6797 69.6635 46.6988 68.204 46.7156 66.7442C46.7245 66.3282 46.7335 65.9122 46.7427 65.4836C46.7461 65.0868 46.7496 64.69 46.7531 64.2811C46.7587 63.9142 46.7643 63.5473 46.7701 63.1693C46.73 62.8748 46.69 62.5803 46.6488 62.2769C46.2963 62.0434 45.9437 61.8098 45.5805 61.5692ZM30.8678 71.0457C29.9122 71.1231 29.9122 71.1231 28.9455 71.0678C28.6769 71.086 28.4084 71.1043 28.1317 71.1231C27.7792 71.6485 27.7792 71.6485 27.4195 72.1846C29.4799 72.5143 31.2369 72.5116 33.2951 72.2067C33.6835 72.1537 33.6835 72.1537 34.0797 72.0996C34.7089 72.0132 35.3374 71.9225 35.9659 71.8308C35.9659 71.4805 35.9659 71.1301 35.9659 70.7692C34.248 70.7231 32.5742 70.8725 30.8678 71.0457ZM37.3903 70.7692C37.5078 71.1195 37.6253 71.4698 37.7464 71.8308C38.8435 71.9704 39.9417 72.1005 41.0403 72.2288C41.5064 72.2884 41.5064 72.2884 41.982 72.3491C42.2826 72.3833 42.5833 72.4175 42.8931 72.4528C43.1691 72.4861 43.4451 72.5195 43.7294 72.5538C44.6388 72.536 45.1611 72.2866 45.9366 71.8308C45.299 71.0429 45.299 71.0429 44.4385 71.0664C44.1323 71.0778 43.8261 71.0892 43.5107 71.101C42.2299 71.1283 41.1363 71.0385 39.8829 70.7692C39.0522 70.7557 38.221 70.753 37.3903 70.7692Z" fill="white"/>
<path d="M28.8439 73.9538C34.31 73.8887 34.31 73.8887 37.016 74.2648C37.7377 74.3449 37.7377 74.3449 38.382 74.1418C39.557 73.8618 40.7299 73.9171 41.9305 73.9317C42.1788 73.9333 42.4271 73.9349 42.683 73.9366C43.2927 73.9407 43.9025 73.9471 44.5122 73.9538C44.5122 74.3041 44.5122 74.6545 44.5122 75.0154C43.3627 75.7768 42.9866 75.7941 41.6634 75.7231C41.6634 76.0734 41.6634 76.4237 41.6634 76.7846C40.8408 77.0181 40.0182 77.2517 39.1707 77.4923C39.0532 77.2588 38.9357 77.0252 38.8146 76.7846C38.4621 76.7846 38.1095 76.7846 37.7463 76.7846C37.7463 77.1349 37.7463 77.4852 37.7463 77.8461C37.0412 77.8461 36.3362 77.8461 35.6097 77.8461C35.6097 77.4958 35.6097 77.1455 35.6097 76.7846C35.2572 76.7846 34.9047 76.7846 34.5414 76.7846C34.4239 77.0181 34.3064 77.2517 34.1853 77.4923C33.1393 77.2048 33.1393 77.2048 32.0487 76.7846C31.9312 76.4343 31.8137 76.084 31.6927 75.7231C31.4209 75.745 31.1492 75.7669 30.8692 75.7894C29.9122 75.7231 29.9122 75.7231 29.2667 75.2365C28.8439 74.6615 28.8439 74.6615 28.8439 73.9538Z" fill="white"/>
</g>
<defs>
<clipPath id="clip0_1_9">
<rect width="73" height="138" fill="white"/>
</clipPath>
</defs>
</svg>