<svg width="25" height="24" viewBox="0 0 25 24" fill="none" xmlns="http://www.w3.org/2000/svg">
<mask id="mask0_503_32016" style="mask-type:alpha" maskUnits="userSpaceOnUse" x="4" y="1" width="17" height="22">
<path fill-rule="evenodd" clip-rule="evenodd" d="M21 1H4V23H21V1ZM8.43018 19.5H16.4302V18H8.43018V19.5Z" fill="#D9D9D9"/>
</mask>
<g mask="url(#mask0_503_32016)">
<path d="M12.5 3V4.75" stroke="#121331" stroke-width="2" stroke-linecap="round" stroke-linejoin="round"/>
<path d="M10 17H15V18.75C15 20.1307 13.8807 21.25 12.5 21.25C11.1193 21.25 10 20.1307 10 18.75V17Z" fill="#121331" stroke="#121331" stroke-width="1.5" stroke-linejoin="round"/>
<path d="M12.5 4.75C9.60051 4.75 7.25 7.10051 7.25 10V12.8029C7.25 12.951 7.21712 13.0972 7.15374 13.231L5.25 17.25H19.75L17.8463 13.231C17.7829 13.0972 17.75 12.951 17.75 12.8029V10C17.75 7.10051 15.3995 4.75 12.5 4.75Z" fill="#121331" stroke="#121331" stroke-width="1.5" stroke-linejoin="round"/>
</g>
</svg>
