<svg width="25" height="24" viewBox="0 0 25 24" fill="none" xmlns="http://www.w3.org/2000/svg">
<mask id="mask0_503_32043" style="mask-type:alpha" maskUnits="userSpaceOnUse" x="4" y="1" width="17" height="22">
<path fill-rule="evenodd" clip-rule="evenodd" d="M12.191 1H4V23H21V9.80903C20.8673 9.92779 20.6921 10 20.5 10H12.75C12.3358 10 12 9.66421 12 9.25V1.5C12 1.30791 12.0722 1.13269 12.191 1ZM8.5 14C8.5 13.4477 8.94772 13 9.5 13H15.5C16.0523 13 16.5 13.4477 16.5 14C16.5 14.5523 16.0523 15 15.5 15H9.5C8.94772 15 8.5 14.5523 8.5 14ZM9.5 17C8.94772 17 8.5 17.4477 8.5 18C8.5 18.5523 8.94772 19 9.5 19H15.5C16.0523 19 16.5 18.5523 16.5 18C16.5 17.4477 16.0523 17 15.5 17H9.5Z" fill="#D9D9D9"/>
<path d="M21 8.69097V1H13.309C13.4278 1.13269 13.5 1.30791 13.5 1.5V8.5H20.5C20.6921 8.5 20.8673 8.57221 21 8.69097Z" fill="#D9D9D9"/>
</mask>
<g mask="url(#mask0_503_32043)">
<path d="M19.75 9.25V20.25C19.75 20.8 19.3 21.25 18.75 21.25H6.25C5.7 21.25 5.25 20.8 5.25 20.25V3.75C5.25 3.2 5.7 2.75 6.25 2.75H13.25" fill="#121331"/>
<path d="M19.75 9.25V20.25C19.75 20.8 19.3 21.25 18.75 21.25H6.25C5.7 21.25 5.25 20.8 5.25 20.25V3.75C5.25 3.2 5.7 2.75 6.25 2.75H13.25L19.75 9.25Z" stroke="#121331" stroke-width="1.5" stroke-linecap="round" stroke-linejoin="round"/>
</g>
</svg>
